<?xml version="1.0" standalone="yes"?>
<!DOCTYPE svg PUBLIC "-//W3C//DTD SVG 1.1//EN"
 "http://www.w3.org/Graphics/SVG/1.1/DTD/svg11.dtd">
<svg xmlns="http://www.w3.org/2000/svg" version="1.1"
  width="100%" height="100%" viewBox="0 0 1024 768"
  style="fill: none; font-family: Helvetica;
 font: Helvetica;
">

<!-- Creator: NGspice -->

<rect x="0" y="0" width="1024" height="768" fill="black" stroke="none"/>
"/>
<text stroke="none" fill="white" font-size="16" x="358" y="752">
time
</text>
<text stroke="none" fill="white" font-size="16" x="10" y="16">
tran1: * e:\aishwarya\mixed_signal_soc_design_marathon\security_system\security_system.cir
</text>
<path stroke="white" d="M50 696l0 -620"/>
<text stroke="none" fill="white" font-size="16" x="35" y="728">
0.0
</text>
<path stroke="white" stroke-dasharray="1,2" d="M204 696l0 -620"/>
<text stroke="none" fill="white" font-size="16" x="189" y="728">
0.5
</text>
<path stroke="white" stroke-dasharray="1,2" d="M358 696l0 -620"/>
<text stroke="none" fill="white" font-size="16" x="343" y="728">
1.0
</text>
<path stroke="white" stroke-dasharray="1,2" d="M512 696l0 -620"/>
<text stroke="none" fill="white" font-size="16" x="497" y="728">
1.5
</text>
<path stroke="white" stroke-dasharray="1,2" d="M666 696l0 -620"/>
<text stroke="none" fill="white" font-size="16" x="651" y="728">
2.0
</text>
<path stroke="white" stroke-dasharray="1,2" d="M820 696l0 -620"/>
<text stroke="none" fill="white" font-size="16" x="805" y="728">
2.5
</text>
<path stroke="white" stroke-dasharray="1,2" d="M974 696l0 -620"/>
<text stroke="none" fill="white" font-size="16" x="959" y="728">
3.0
</text>
<text stroke="none" fill="white" font-size="16" x="614" y="752">
s
</text>
<path stroke="white" d="M50 696l924 0"/>
<text stroke="none" fill="white" font-size="16" x="18" y="704">
0.0
</text>
<path stroke="white" stroke-dasharray="1,2" d="M50 634l924 0"/>
<text stroke="none" fill="white" font-size="16" x="18" y="642">
0.5
</text>
<path stroke="white" stroke-dasharray="1,2" d="M50 572l924 0"/>
<text stroke="none" fill="white" font-size="16" x="18" y="580">
1.0
</text>
<path stroke="white" stroke-dasharray="1,2" d="M50 510l924 0"/>
<text stroke="none" fill="white" font-size="16" x="18" y="518">
1.5
</text>
<path stroke="white" stroke-dasharray="1,2" d="M50 448l924 0"/>
<text stroke="none" fill="white" font-size="16" x="18" y="456">
2.0
</text>
<path stroke="white" stroke-dasharray="1,2" d="M50 386l924 0"/>
<text stroke="none" fill="white" font-size="16" x="18" y="394">
2.5
</text>
<path stroke="white" stroke-dasharray="1,2" d="M50 324l924 0"/>
<text stroke="none" fill="white" font-size="16" x="18" y="332">
3.0
</text>
<path stroke="white" stroke-dasharray="1,2" d="M50 262l924 0"/>
<text stroke="none" fill="white" font-size="16" x="18" y="270">
3.5
</text>
<path stroke="white" stroke-dasharray="1,2" d="M50 200l924 0"/>
<text stroke="none" fill="white" font-size="16" x="18" y="208">
4.0
</text>
<path stroke="white" stroke-dasharray="1,2" d="M50 138l924 0"/>
<text stroke="none" fill="white" font-size="16" x="18" y="146">
4.5
</text>
<path stroke="white" stroke-dasharray="1,2" d="M50 76l924 0"/>
<text stroke="none" fill="white" font-size="16" x="18" y="84">
5.0
</text>
<text stroke="none" fill="white" font-size="16" x="10" y="32">
V
</text>
<path stroke="red" d="M462 23l46 0"/>
<text stroke="none" fill="white" font-size="16" x="518" y="32">
v(doorin)
</text>
<path stroke="red" d="M50 696l1 0 2 0 3 0 6 0 11 0 1 0 1 0 1 0 3 0 5 0 11 0 18 0 1 0 1 0 1 0 3 0 5 0 10 0 1 0 1 0 1 0 3 0 5 0 11 0 18 0 19 0 18 0 19 0 0 -20 0 -40 0 -79 0 -152 0 -16 0 -32 0 -64 0 -126 0 -62 0 -3 0 -6 0 -11 0 -9 1 0 2 0 3 0 6 0"/>
<path stroke="red" d="M242 76l12 0 19 0 0 10 0 20 0 39 0 80 0 159 0 312 1 0 1 0 1 0 4 0 7 0 1 0 1 0 3 0 5 0 11 0 18 0 19 0 18 0 19 0 1 0 1 0 3 0 5 0 11 0 19 0 1 0 2 0 3 0 7 0 2 0 1 0 1 0 3 0 5 0 11 0 18 0 19 0 18 0 3 0 4 0 9 0 0 -20 0 -40 0 -79"/>
<path stroke="red" d="M529 557l0 -152 0 -16 0 -32 0 -64 0 -126 0 -23 0 -7 0 -13 0 -28 0 -14 0 -2 0 -2 0 -2 1 0 1 0 2 0 3 0 7 0 13 0 19 0 2 0 0 50 0 99 0 198 0 273 1 0 1 0 2 0 3 0 7 0 1 0 1 0 3 0 5 0 11 0 18 0 19 0 18 0 19 0 1 0 2 0 1 0 1 0 1 0"/>
<path stroke="red" d="M692 696l1 0 1 0 1 0 3 0 5 0 10 0 19 0 1 0 1 0 1 0 3 0 1 0 2 0 3 0 1 0 1 0 1 0 3 0 5 0 10 0 19 0 18 0 19 0 18 0 0 -50 0 -99 0 -198 0 -273 1 0 1 0 2 0 1 0 2 0 1 0 2 0 2 0 6 0 10 0 2 0 5 0 9 0 3 0 4 0 0 50 0 99 0 198 0 273"/>
<path stroke="red" d="M890 696l1 0 1 0 2 0 1 0 1 0 4 0 1 0 1 0 3 0 5 0 11 0 18 0 19 0 16 0"/>
</svg>
