<?xml version="1.0" standalone="yes"?>
<!DOCTYPE svg PUBLIC "-//W3C//DTD SVG 1.1//EN"
 "http://www.w3.org/Graphics/SVG/1.1/DTD/svg11.dtd">
<svg xmlns="http://www.w3.org/2000/svg" version="1.1"
  width="100%" height="100%" viewBox="0 0 1024 768"
  style="fill: none; font-family: Helvetica;
 font: Helvetica;
">

<!-- Creator: NGspice -->

<rect x="0" y="0" width="1024" height="768" fill="black" stroke="none"/>
"/>
<text stroke="none" fill="white" font-size="16" x="358" y="752">
time
</text>
<text stroke="none" fill="white" font-size="16" x="10" y="16">
tran1: * e:\aishwarya\mixed_signal_soc_design_marathon\security_system\security_system.cir
</text>
<path stroke="white" d="M60 696l0 -623"/>
<text stroke="none" fill="white" font-size="16" x="45" y="728">
0.0
</text>
<path stroke="white" stroke-dasharray="1,2" d="M210 696l0 -623"/>
<text stroke="none" fill="white" font-size="16" x="195" y="728">
0.5
</text>
<path stroke="white" stroke-dasharray="1,2" d="M360 696l0 -623"/>
<text stroke="none" fill="white" font-size="16" x="345" y="728">
1.0
</text>
<path stroke="white" stroke-dasharray="1,2" d="M510 696l0 -623"/>
<text stroke="none" fill="white" font-size="16" x="495" y="728">
1.5
</text>
<path stroke="white" stroke-dasharray="1,2" d="M660 696l0 -623"/>
<text stroke="none" fill="white" font-size="16" x="645" y="728">
2.0
</text>
<path stroke="white" stroke-dasharray="1,2" d="M810 696l0 -623"/>
<text stroke="none" fill="white" font-size="16" x="795" y="728">
2.5
</text>
<path stroke="white" stroke-dasharray="1,2" d="M960 696l0 -623"/>
<text stroke="none" fill="white" font-size="16" x="945" y="728">
3.0
</text>
<text stroke="none" fill="white" font-size="16" x="614" y="752">
s
</text>
<path stroke="white" d="M60 696l900 0"/>
<text stroke="none" fill="white" font-size="16" x="28" y="704">
0.0
</text>
<path stroke="white" stroke-dasharray="1,2" d="M60 607l900 0"/>
<text stroke="none" fill="white" font-size="16" x="28" y="615">
2.0
</text>
<path stroke="white" stroke-dasharray="1,2" d="M60 518l900 0"/>
<text stroke="none" fill="white" font-size="16" x="28" y="526">
4.0
</text>
<path stroke="white" stroke-dasharray="1,2" d="M60 429l900 0"/>
<text stroke="none" fill="white" font-size="16" x="28" y="437">
6.0
</text>
<path stroke="white" stroke-dasharray="1,2" d="M60 340l900 0"/>
<text stroke="none" fill="white" font-size="16" x="28" y="348">
8.0
</text>
<path stroke="white" stroke-dasharray="1,2" d="M60 251l900 0"/>
<text stroke="none" fill="white" font-size="16" x="18" y="259">
10.0
</text>
<path stroke="white" stroke-dasharray="1,2" d="M60 162l900 0"/>
<text stroke="none" fill="white" font-size="16" x="18" y="170">
12.0
</text>
<path stroke="white" stroke-dasharray="1,2" d="M60 73l900 0"/>
<text stroke="none" fill="white" font-size="16" x="18" y="81">
14.0
</text>
<text stroke="none" fill="white" font-size="16" x="10" y="32">
     
</text>
<path stroke="red" d="M450 23l45 0"/>
<text stroke="none" fill="white" font-size="16" x="505" y="32">
v(c1)
</text>
<path stroke="red" d="M60 651l1 0 2 0 3 0 5 0 12 0 0 1 0 1 0 2 0 5 0 9 0 18 0 8 0 1 1 0 1 0 3 0 5 0 11 0 18 0 0 -1 0 -3 0 -6 0 -11 0 -23 0 -1 1 0 1 0 3 0 5 0 10 0 1 0 1 0 1 0 2 0 6 0 10 0 18 0 18 0 18 0 18 0 0 1 0 1 0 2 0 5 0 9 0 18 0 8 0 1 1 0"/>
<path stroke="red" d="M236 696l2 0 3 0 6 0 12 0 18 0 0 -1 0 -3 0 -6 0 -11 0 -23 0 -1 1 0 1 0 1 0 4 0 6 0 1 0 1 0 1 0 3 0 5 0 10 0 18 0 18 0 18 0 18 0 0 1 0 1 0 2 0 5 0 9 0 18 0 8 0 1 1 0 2 0 2 0 6 0 10 0 18 0 0 -3 0 -6 0 -11 0 -23 0 -2 1 0 1 0"/>
<path stroke="red" d="M424 651l1 0 4 0 6 0 2 0 1 0 1 0 3 0 5 0 10 0 18 0 18 0 18 0 2 0 5 0 9 0 0 1 0 1 0 2 0 5 0 9 0 18 0 8 0 1 1 0 1 0 1 0 4 0 6 0 13 0 18 0 3 0 0 -3 0 -6 0 -11 0 -23 0 -2 1 0 2 0 3 0 6 0 1 0 1 0 1 0 3 0 5 0 10 0 18 0 18 0 18 0"/>
<path stroke="red" d="M661 651l18 0 0 3 0 6 0 11 0 23 0 2 1 0 1 0 1 0 1 0 1 0 2 0 1 0 1 0 3 0 5 0 10 0 18 0 0 -3 0 -6 0 -11 0 -23 0 -2 1 0 1 0 1 0 4 0 2 0 3 0 1 0 1 0 1 0 2 0 6 0 10 0 18 0 18 0 18 0 18 0 0 3 0 6 0 11 0 23 0 2 1 0 2 0 1 0 1 0"/>
<path stroke="red" d="M834 696l1 0 1 0 1 0 1 0 2 0 6 0 10 0 2 0 5 0 9 0 2 0 4 0 0 -3 0 -6 0 -11 0 -23 0 -2 1 0 1 0 2 0 1 0 1 0 4 0 1 0 1 0 3 0 5 0 10 0 18 0 18 0 16 0"/>
<path stroke="blue" d="M60 23l45 0"/>
<text stroke="none" fill="white" font-size="16" x="115" y="32">
v(c2)+4
</text>
<path stroke="blue" d="M60 518l1 0 2 0 3 0 5 0 12 0 0 -1 0 -1 0 -2 0 -5 0 -9 0 -18 0 -8 0 -1 1 0 1 0 3 0 5 0 11 0 18 0 1 0 1 0 3 0 5 0 10 0 1 0 1 0 1 0 2 0 6 0 10 0 18 0 18 0 18 0 18 0 0 1 0 1 0 2 0 5 0 9 0 18 0 8 0 1 1 0 2 0 3 0 6 0 12 0 18 0"/>
<path stroke="blue" d="M277 518l1 0 1 0 1 0 4 0 6 0 1 0 1 0 1 0 3 0 5 0 10 0 18 0 18 0 18 0 18 0 0 -1 0 -1 0 -2 0 -5 0 -9 0 -18 0 -8 0 -1 1 0 2 0 2 0 6 0 10 0 18 0 1 0 1 0 1 0 4 0 6 0 2 0 1 0 1 0 3 0 5 0 10 0 18 0 18 0 18 0 2 0 5 0 9 0 0 1 0 1"/>
<path stroke="blue" d="M527 475l0 2 0 5 0 9 0 18 0 8 0 1 1 0 1 0 1 0 4 0 6 0 13 0 18 0 3 0 1 0 2 0 3 0 6 0 1 0 1 0 1 0 3 0 5 0 10 0 18 0 18 0 18 0 18 0 0 -3 0 -6 0 -11 0 -23 0 -2 1 0 1 0 1 0 1 0 1 0 2 0 1 0 1 0 3 0 5 0 10 0 18 0 1 0 1 0 1 0 4 0"/>
<path stroke="blue" d="M731 473l2 0 3 0 1 0 1 0 1 0 2 0 6 0 10 0 18 0 18 0 18 0 18 0 0 3 0 6 0 11 0 23 0 2 1 0 2 0 1 0 1 0 1 0 1 0 1 0 1 0 2 0 6 0 10 0 2 0 5 0 9 0 2 0 4 0 1 0 1 0 2 0 1 0 1 0 4 0 1 0 1 0 3 0 5 0 10 0 18 0 18 0 16 0"/>
<path stroke="#FFA500" d="M450 39l45 0"/>
<text stroke="none" fill="white" font-size="16" x="505" y="48">
v(c3)+8
</text>
<path stroke="#FFA500" d="M60 340l1 0 2 0 3 0 5 0 12 0 1 0 1 0 3 0 5 0 11 0 18 0 1 0 1 0 3 0 5 0 10 0 1 0 1 0 1 0 2 0 6 0 10 0 18 0 18 0 18 0 18 0 0 -1 0 -1 0 -2 0 -5 0 -9 0 -18 0 -8 1 0 2 0 3 0 6 0 12 0 18 0 1 0 1 0 1 0 4 0 6 0 1 0 1 0 1 0 3 0"/>
<path stroke="#FFA500" d="M296 296l5 0 10 0 18 0 18 0 18 0 18 0 1 0 2 0 2 0 6 0 10 0 18 0 1 0 1 0 1 0 4 0 6 0 2 0 1 0 1 0 3 0 5 0 10 0 18 0 18 0 18 0 2 0 5 0 9 0 0 1 0 2 0 5 0 9 0 18 0 8 0 1 1 0 1 0 1 0 4 0 6 0 13 0 18 0 3 0 1 0 2 0 3 0 6 0 1 0"/>
<path stroke="#FFA500" d="M587 340l1 0 1 0 3 0 5 0 10 0 18 0 18 0 18 0 18 0 1 0 1 0 1 0 1 0 1 0 2 0 1 0 1 0 3 0 5 0 10 0 18 0 1 0 1 0 1 0 4 0 2 0 3 0 1 0 1 0 1 0 2 0 6 0 10 0 18 0 18 0 18 0 18 0 0 -3 0 -6 0 -11 0 -23 0 -1 1 0 2 0 1 0 1 0 1 0"/>
<path stroke="#FFA500" d="M835 296l1 0 1 0 1 0 2 0 6 0 10 0 2 0 5 0 9 0 2 0 4 0 1 0 1 0 2 0 1 0 1 0 4 0 1 0 1 0 3 0 5 0 10 0 18 0 18 0 16 0"/>
<path stroke="green" d="M60 39l45 0"/>
<text stroke="none" fill="white" font-size="16" x="115" y="48">
v(c4)+12
</text>
<path stroke="green" d="M60 162l1 0 2 0 3 0 5 0 12 0 1 0 1 0 3 0 5 0 11 0 18 0 1 0 1 0 3 0 5 0 10 0 1 0 1 0 1 0 2 0 6 0 10 0 18 0 18 0 18 0 18 0 1 0 2 0 3 0 6 0 12 0 18 0 1 0 1 0 1 0 4 0 6 0 1 0 1 0 1 0 3 0 5 0 10 0 18 0 18 0 18 0 18 0 1 0 2 0"/>
<path stroke="green" d="M386 162l2 0 6 0 10 0 18 0 1 0 1 0 1 0 4 0 6 0 2 0 1 0 1 0 3 0 5 0 10 0 18 0 18 0 18 0 2 0 5 0 9 0 0 -1 0 -1 0 -2 0 -5 0 -9 0 -18 0 -8 1 0 1 0 1 0 4 0 6 0 13 0 18 0 3 0 1 0 2 0 3 0 6 0 1 0 1 0 1 0 3 0 5 0 10 0 18 0 18 0"/>
<path stroke="green" d="M643 118l18 0 18 0 1 0 1 0 1 0 1 0 1 0 2 0 1 0 1 0 3 0 5 0 10 0 18 0 1 0 1 0 1 0 4 0 2 0 3 0 1 0 1 0 1 0 2 0 6 0 10 0 18 0 18 0 18 0 18 0 1 0 2 0 1 0 1 0 1 0 1 0 1 0 1 0 2 0 6 0 10 0 2 0 5 0 9 0 2 0 4 0 1 0 1 0 2 0 1 0"/>
<path stroke="green" d="M883 118l1 0 4 0 1 0 1 0 3 0 5 0 10 0 18 0 18 0 16 0"/>
</svg>
