<?xml version="1.0" standalone="yes"?>
<!DOCTYPE svg PUBLIC "-//W3C//DTD SVG 1.1//EN"
 "http://www.w3.org/Graphics/SVG/1.1/DTD/svg11.dtd">
<svg xmlns="http://www.w3.org/2000/svg" version="1.1"
  width="100%" height="100%" viewBox="0 0 1024 768"
  style="fill: none; font-family: Helvetica;
 font: Helvetica;
">

<!-- Creator: NGspice -->

<rect x="0" y="0" width="1024" height="768" fill="black" stroke="none"/>
"/>
<text stroke="none" fill="white" font-size="16" x="358" y="752">
time
</text>
<text stroke="none" fill="white" font-size="16" x="10" y="16">
tran1: * e:\aishwarya\mixed_signal_soc_design_marathon\security_system\security_system.cir
</text>
<path stroke="white" d="M70 696l0 -624"/>
<text stroke="none" fill="white" font-size="16" x="55" y="728">
0.0
</text>
<path stroke="white" stroke-dasharray="1,2" d="M217 696l0 -624"/>
<text stroke="none" fill="white" font-size="16" x="202" y="728">
0.5
</text>
<path stroke="white" stroke-dasharray="1,2" d="M364 696l0 -624"/>
<text stroke="none" fill="white" font-size="16" x="349" y="728">
1.0
</text>
<path stroke="white" stroke-dasharray="1,2" d="M511 696l0 -624"/>
<text stroke="none" fill="white" font-size="16" x="496" y="728">
1.5
</text>
<path stroke="white" stroke-dasharray="1,2" d="M658 696l0 -624"/>
<text stroke="none" fill="white" font-size="16" x="643" y="728">
2.0
</text>
<path stroke="white" stroke-dasharray="1,2" d="M805 696l0 -624"/>
<text stroke="none" fill="white" font-size="16" x="790" y="728">
2.5
</text>
<path stroke="white" stroke-dasharray="1,2" d="M952 696l0 -624"/>
<text stroke="none" fill="white" font-size="16" x="937" y="728">
3.0
</text>
<text stroke="none" fill="white" font-size="16" x="614" y="752">
s
</text>
<path stroke="white" d="M70 696l882 0"/>
<text stroke="none" fill="white" font-size="16" x="38" y="704">
0.0
</text>
<path stroke="white" stroke-dasharray="1,2" d="M70 644l882 0"/>
<text stroke="none" fill="white" font-size="16" x="28" y="652">
10.0
</text>
<path stroke="white" stroke-dasharray="1,2" d="M70 592l882 0"/>
<text stroke="none" fill="white" font-size="16" x="28" y="600">
20.0
</text>
<path stroke="white" stroke-dasharray="1,2" d="M70 540l882 0"/>
<text stroke="none" fill="white" font-size="16" x="28" y="548">
30.0
</text>
<path stroke="white" stroke-dasharray="1,2" d="M70 488l882 0"/>
<text stroke="none" fill="white" font-size="16" x="28" y="496">
40.0
</text>
<path stroke="white" stroke-dasharray="1,2" d="M70 436l882 0"/>
<text stroke="none" fill="white" font-size="16" x="28" y="444">
50.0
</text>
<path stroke="white" stroke-dasharray="1,2" d="M70 384l882 0"/>
<text stroke="none" fill="white" font-size="16" x="28" y="392">
60.0
</text>
<path stroke="white" stroke-dasharray="1,2" d="M70 332l882 0"/>
<text stroke="none" fill="white" font-size="16" x="28" y="340">
70.0
</text>
<path stroke="white" stroke-dasharray="1,2" d="M70 280l882 0"/>
<text stroke="none" fill="white" font-size="16" x="28" y="288">
80.0
</text>
<path stroke="white" stroke-dasharray="1,2" d="M70 228l882 0"/>
<text stroke="none" fill="white" font-size="16" x="28" y="236">
90.0
</text>
<path stroke="white" stroke-dasharray="1,2" d="M70 176l882 0"/>
<text stroke="none" fill="white" font-size="16" x="18" y="184">
100.0
</text>
<path stroke="white" stroke-dasharray="1,2" d="M70 124l882 0"/>
<text stroke="none" fill="white" font-size="16" x="18" y="132">
110.0
</text>
<path stroke="white" stroke-dasharray="1,2" d="M70 72l882 0"/>
<text stroke="none" fill="white" font-size="16" x="18" y="80">
120.0
</text>
<text stroke="none" fill="white" font-size="16" x="10" y="32">
     
</text>
<path stroke="red" d="M441 23l44 0"/>
<text stroke="none" fill="white" font-size="16" x="495" y="32">
v(door1)
</text>
<path stroke="red" d="M70 696l1 0 2 0 3 0 5 0 11 0 1 0 2 0 2 0 5 0 11 0 17 0 1 0 1 0 1 0 2 0 6 0 10 0 1 0 1 0 3 0 5 0 10 0 17 0 18 0 18 0 17 0 1 0 1 0 1 0 3 0 6 0 12 0 18 0 1 0 2 0 3 0 7 0 1 0 1 0 3 0 5 0 10 0 18 0 17 0 18 0 18 0 1 0 1 0 3 0"/>
<path stroke="red" d="M392 696l5 0 10 0 18 0 1 0 2 0 3 0 6 0 2 0 1 0 2 0 2 0 5 0 10 0 18 0 18 0 17 0 2 0 5 0 9 0 1 0 2 0 3 0 7 0 12 0 18 0 2 0 1 0 1 0 1 0 4 0 6 0 1 0 1 0 3 0 5 0 10 0 18 0 17 0 18 0 18 0 1 0 2 0 1 0 2 0 1 0 2 0 2 0 5 0 10 0 18 0"/>
<path stroke="red" d="M721 696l1 0 2 0 3 0 1 0 2 0 3 0 1 0 1 0 3 0 5 0 10 0 18 0 17 0 18 0 17 0 1 0 1 0 2 0 1 0 2 0 1 0 1 0 3 0 5 0 10 0 2 0 5 0 8 0 3 0 4 0 1 0 1 0 1 0 1 0 2 0 3 0 1 0 2 0 2 0 5 0 10 0 18 0 18 0 15 0"/>
<path stroke="blue" d="M70 23l44 0"/>
<text stroke="none" fill="white" font-size="16" x="124" y="32">
v(door2)+8
</text>
<path stroke="blue" d="M70 654l1 0 2 0 3 0 5 0 11 0 1 0 2 0 2 0 5 0 11 0 17 0 1 0 1 0 1 0 2 0 6 0 10 0 1 0 1 0 3 0 5 0 10 0 17 0 18 0 18 0 17 0 1 0 1 0 1 0 3 0 6 0 12 0 18 0 1 0 2 0 3 0 7 0 1 0 1 0 3 0 5 0 10 0 18 0 17 0 18 0 18 0 1 0 1 0 3 0"/>
<path stroke="blue" d="M392 654l5 0 10 0 18 0 1 0 2 0 3 0 6 0 2 0 1 0 2 0 2 0 5 0 10 0 18 0 18 0 17 0 2 0 5 0 9 0 1 0 2 0 3 0 7 0 12 0 18 0 2 0 1 0 1 0 1 0 4 0 6 0 1 0 1 0 3 0 5 0 10 0 18 0 17 0 18 0 18 0 1 0 2 0 1 0 2 0 1 0 2 0 2 0 5 0 10 0"/>
<path stroke="blue" d="M703 654l18 0 1 0 2 0 3 0 1 0 2 0 3 0 1 0 1 0 3 0 5 0 10 0 18 0 17 0 18 0 17 0 1 0 1 0 2 0 1 0 2 0 1 0 1 0 3 0 5 0 10 0 2 0 5 0 8 0 3 0 4 0 1 0 1 0 1 0 1 0 2 0 3 0 1 0 2 0 2 0 5 0 10 0 18 0 18 0 15 0"/>
<path stroke="#FFA500" d="M441 39l44 0"/>
<text stroke="none" fill="white" font-size="16" x="495" y="48">
v(door3)+16
</text>
<path stroke="#FFA500" d="M70 613l1 0 2 0 3 0 5 0 11 0 1 0 2 0 2 0 5 0 11 0 17 0 1 0 1 0 1 0 2 0 6 0 10 0 1 0 1 0 3 0 5 0 10 0 17 0 18 0 18 0 17 0 1 0 1 0 1 0 3 0 6 0 12 0 18 0 1 0 2 0 3 0 7 0 1 0 1 0 3 0 5 0 10 0 18 0 17 0 18 0 18 0 1 0 1 0"/>
<path stroke="#FFA500" d="M389 613l3 0 5 0 10 0 18 0 1 0 2 0 3 0 6 0 2 0 1 0 2 0 2 0 5 0 10 0 18 0 18 0 17 0 2 0 5 0 9 0 1 0 2 0 3 0 7 0 12 0 18 0 2 0 1 0 1 0 1 0 4 0 6 0 1 0 1 0 3 0 5 0 10 0 18 0 17 0 18 0 18 0 1 0 2 0 1 0 2 0 1 0 2 0 2 0 5 0"/>
<path stroke="#FFA500" d="M693 613l10 0 18 0 1 0 2 0 3 0 1 0 2 0 3 0 1 0 1 0 3 0 5 0 10 0 18 0 17 0 18 0 17 0 1 0 1 0 2 0 1 0 2 0 1 0 1 0 3 0 5 0 10 0 2 0 5 0 8 0 3 0 4 0 0 -2 0 -4 0 -9 0 -11 0 1 0 4 0 6 0 14 0 1 1 0 1 0 1 0 1 0 2 0 3 0 1 0 2 0"/>
<path stroke="#FFA500" d="M884 613l2 0 5 0 10 0 18 0 18 0 15 0"/>
<path stroke="green" d="M70 39l44 0"/>
<text stroke="none" fill="white" font-size="16" x="124" y="48">
v(door4)+24
</text>
<path stroke="green" d="M70 571l1 0 2 0 3 0 5 0 11 0 1 0 2 0 2 0 5 0 11 0 17 0 1 0 1 0 1 0 2 0 6 0 10 0 1 0 1 0 3 0 5 0 10 0 17 0 18 0 18 0 17 0 1 0 1 0 1 0 3 0 6 0 12 0 18 0 1 0 2 0 3 0 7 0 1 0 1 0 3 0 5 0 10 0 18 0 17 0 18 0 18 0 1 0 1 0 3 0"/>
<path stroke="green" d="M392 571l5 0 10 0 18 0 1 0 2 0 3 0 6 0 2 0 1 0 2 0 2 0 5 0 10 0 18 0 18 0 17 0 2 0 5 0 9 0 1 0 2 0 3 0 7 0 12 0 18 0 2 0 1 0 1 0 1 0 4 0 6 0 1 0 1 0 3 0 5 0 10 0 18 0 17 0 18 0 18 0 1 0 2 0 1 0 2 0 1 0 2 0 2 0 5 0 10 0"/>
<path stroke="green" d="M703 571l18 0 1 0 2 0 3 0 1 0 2 0 3 0 1 0 1 0 3 0 5 0 10 0 18 0 17 0 18 0 17 0 0 -1 0 -4 0 -6 0 -14 0 -1 1 0 1 0 2 0 1 0 2 0 1 0 1 0 3 0 5 0 10 0 2 0 5 0 8 0 3 0 4 0 0 2 0 4 0 9 0 11 1 0 1 0 1 0 1 0 2 0 3 0 1 0 2 0 2 0"/>
<path stroke="green" d="M886 571l5 0 10 0 18 0 18 0 15 0"/>
<path stroke="#FFC0C5" d="M441 55l44 0"/>
<text stroke="none" fill="white" font-size="16" x="495" y="64">
v(door5)+32
</text>
<path stroke="#FFC0C5" d="M70 530l1 0 2 0 3 0 5 0 11 0 1 0 2 0 2 0 5 0 11 0 17 0 1 0 1 0 1 0 2 0 6 0 10 0 1 0 1 0 3 0 5 0 10 0 17 0 18 0 18 0 17 0 1 0 1 0 1 0 3 0 6 0 12 0 18 0 1 0 2 0 3 0 7 0 1 0 1 0 3 0 5 0 10 0 18 0 17 0 18 0 18 0 1 0 1 0"/>
<path stroke="#FFC0C5" d="M389 530l3 0 5 0 10 0 18 0 1 0 2 0 3 0 6 0 2 0 1 0 2 0 2 0 5 0 10 0 18 0 18 0 17 0 2 0 5 0 9 0 1 0 2 0 3 0 7 0 12 0 18 0 2 0 1 0 1 0 1 0 4 0 6 0 1 0 1 0 3 0 5 0 10 0 18 0 17 0 18 0 18 0 1 0 2 0 1 0 2 0 1 0 2 0 2 0 5 0"/>
<path stroke="#FFC0C5" d="M693 530l10 0 18 0 1 0 2 0 3 0 1 0 2 0 3 0 1 0 1 0 3 0 5 0 10 0 18 0 17 0 18 0 17 0 1 0 1 0 2 0 1 0 2 0 1 0 1 0 3 0 5 0 10 0 2 0 5 0 8 0 3 0 4 0 1 0 1 0 1 0 1 0 2 0 3 0 1 0 2 0 2 0 5 0 10 0 18 0 18 0 15 0"/>
<path stroke="#A52A2A" d="M70 55l44 0"/>
<text stroke="none" fill="white" font-size="16" x="124" y="64">
v(door6)+40
</text>
<path stroke="#A52A2A" d="M70 488l1 0 2 0 3 0 5 0 11 0 1 0 2 0 2 0 5 0 11 0 17 0 1 0 1 0 1 0 2 0 6 0 10 0 1 0 1 0 3 0 5 0 10 0 17 0 18 0 18 0 17 0 1 0 1 0 1 0 3 0 6 0 12 0 18 0 1 0 2 0 3 0 7 0 1 0 1 0 3 0 5 0 10 0 18 0 17 0 18 0 18 0 1 0 1 0"/>
<path stroke="#A52A2A" d="M389 488l3 0 5 0 10 0 18 0 1 0 2 0 3 0 6 0 2 0 1 0 2 0 2 0 5 0 10 0 18 0 18 0 17 0 2 0 5 0 9 0 1 0 2 0 3 0 7 0 12 0 18 0 2 0 1 0 1 0 1 0 4 0 6 0 1 0 1 0 3 0 5 0 10 0 18 0 17 0 18 0 18 0 1 0 2 0 1 0 2 0 1 0 2 0 2 0 5 0"/>
<path stroke="#A52A2A" d="M693 488l10 0 18 0 1 0 2 0 3 0 1 0 2 0 3 0 1 0 1 0 3 0 5 0 10 0 18 0 17 0 18 0 17 0 1 0 1 0 2 0 1 0 2 0 1 0 1 0 3 0 5 0 10 0 2 0 5 0 8 0 3 0 4 0 1 0 1 0 1 0 1 0 2 0 3 0 1 0 2 0 2 0 5 0 10 0 18 0 18 0 15 0"/>
<path stroke="#F0E68C" d="M441 71l44 0"/>
<text stroke="none" fill="white" font-size="16" x="495" y="80">
v(door7)+48
</text>
<path stroke="#F0E68C" d="M70 446l1 0 2 0 3 0 5 0 11 0 1 0 2 0 2 0 5 0 11 0 17 0 1 0 1 0 1 0 2 0 6 0 10 0 1 0 1 0 3 0 5 0 10 0 17 0 18 0 18 0 17 0 1 0 1 0 1 0 3 0 6 0 12 0 18 0 1 0 2 0 3 0 7 0 1 0 1 0 3 0 5 0 10 0 18 0 17 0 18 0 18 0 1 0 1 0"/>
<path stroke="#F0E68C" d="M389 446l3 0 5 0 10 0 18 0 1 0 2 0 3 0 6 0 2 0 1 0 2 0 2 0 5 0 10 0 18 0 18 0 17 0 2 0 5 0 9 0 1 0 2 0 3 0 7 0 12 0 18 0 2 0 0 -2 0 -4 0 -8 0 -12 0 2 0 3 0 7 0 13 0 1 1 0 1 0 1 0 4 0 6 0 1 0 1 0 3 0 5 0 10 0 18 0 17 0"/>
<path stroke="#F0E68C" d="M641 446l18 0 18 0 1 0 2 0 1 0 2 0 1 0 2 0 2 0 5 0 10 0 18 0 1 0 2 0 3 0 1 0 2 0 3 0 1 0 1 0 3 0 5 0 10 0 18 0 17 0 18 0 17 0 1 0 1 0 2 0 1 0 2 0 1 0 1 0 3 0 5 0 10 0 2 0 5 0 8 0 3 0 4 0 1 0 1 0 1 0 1 0 2 0 3 0 1 0 2 0"/>
<path stroke="#F0E68C" d="M884 446l2 0 5 0 10 0 18 0 18 0 15 0"/>
<path stroke="#DDA0DD" d="M70 71l44 0"/>
<text stroke="none" fill="white" font-size="16" x="124" y="80">
v(door8)+56
</text>
<path stroke="#DDA0DD" d="M70 405l1 0 2 0 3 0 5 0 11 0 1 0 2 0 2 0 5 0 11 0 17 0 1 0 1 0 1 0 2 0 6 0 10 0 1 0 1 0 3 0 5 0 10 0 17 0 18 0 18 0 17 0 1 0 1 0 1 0 3 0 6 0 12 0 18 0 1 0 2 0 3 0 7 0 1 0 1 0 3 0 5 0 10 0 18 0 17 0 18 0 18 0 1 0 1 0"/>
<path stroke="#DDA0DD" d="M389 405l3 0 5 0 10 0 18 0 1 0 2 0 3 0 6 0 2 0 1 0 2 0 2 0 5 0 10 0 18 0 18 0 17 0 2 0 5 0 9 0 0 -1 0 -1 0 -2 0 -3 0 -4 0 -2 0 -2 0 -6 0 -5 1 0 2 0 3 0 7 0 12 0 18 0 2 0 0 2 0 4 0 8 0 12 1 0 1 0 1 0 4 0 6 0 1 0 1 0 3 0"/>
<path stroke="#DDA0DD" d="M591 405l5 0 10 0 18 0 17 0 18 0 18 0 1 0 2 0 1 0 2 0 1 0 2 0 2 0 5 0 10 0 18 0 1 0 2 0 3 0 1 0 2 0 3 0 1 0 1 0 3 0 5 0 10 0 18 0 17 0 18 0 17 0 1 0 1 0 2 0 1 0 2 0 1 0 1 0 3 0 5 0 10 0 2 0 5 0 8 0 3 0 4 0 1 0 1 0 1 0"/>
<path stroke="#DDA0DD" d="M875 405l1 0 2 0 3 0 1 0 2 0 2 0 5 0 10 0 18 0 18 0 15 0"/>
<path stroke="#DA70D6" d="M441 87l44 0"/>
<text stroke="none" fill="white" font-size="16" x="495" y="96">
v(door9)+64
</text>
<path stroke="#DA70D6" d="M70 363l1 0 2 0 3 0 5 0 11 0 1 0 2 0 2 0 5 0 11 0 17 0 1 0 1 0 1 0 2 0 6 0 10 0 1 0 1 0 3 0 5 0 10 0 17 0 18 0 18 0 17 0 1 0 1 0 1 0 3 0 6 0 12 0 18 0 1 0 2 0 3 0 7 0 1 0 1 0 3 0 5 0 10 0 18 0 17 0 18 0 18 0 1 0 1 0"/>
<path stroke="#DA70D6" d="M389 363l3 0 5 0 10 0 18 0 1 0 2 0 3 0 6 0 2 0 1 0 2 0 2 0 5 0 10 0 18 0 18 0 17 0 2 0 5 0 9 0 1 0 2 0 3 0 7 0 12 0 18 0 2 0 1 0 1 0 1 0 4 0 6 0 1 0 1 0 3 0 5 0 10 0 18 0 17 0 18 0 18 0 1 0 2 0 1 0 2 0 1 0 2 0 2 0 5 0"/>
<path stroke="#DA70D6" d="M693 363l10 0 18 0 1 0 2 0 3 0 1 0 2 0 3 0 1 0 1 0 3 0 5 0 10 0 18 0 17 0 18 0 17 0 1 0 1 0 2 0 1 0 2 0 1 0 1 0 3 0 5 0 10 0 2 0 5 0 8 0 3 0 4 0 1 0 1 0 1 0 1 0 2 0 3 0 1 0 2 0 2 0 5 0 10 0 18 0 18 0 15 0"/>
<path stroke="#EE82EE" d="M70 87l44 0"/>
<text stroke="none" fill="white" font-size="16" x="124" y="96">
v(door10)+72
</text>
<path stroke="#EE82EE" d="M70 322l1 0 2 0 3 0 5 0 11 0 1 0 2 0 2 0 5 0 11 0 17 0 1 0 1 0 1 0 2 0 6 0 10 0 1 0 1 0 3 0 5 0 10 0 17 0 18 0 18 0 17 0 1 0 1 0 1 0 3 0 6 0 12 0 18 0 1 0 2 0 3 0 7 0 1 0 1 0 3 0 5 0 10 0 18 0 17 0 18 0 18 0 1 0 1 0"/>
<path stroke="#EE82EE" d="M389 322l3 0 5 0 10 0 18 0 1 0 2 0 3 0 6 0 2 0 1 0 2 0 2 0 5 0 10 0 18 0 18 0 17 0 2 0 5 0 9 0 1 0 2 0 3 0 7 0 12 0 18 0 2 0 1 0 1 0 1 0 4 0 6 0 1 0 1 0 3 0 5 0 10 0 18 0 17 0 18 0 18 0 1 0 2 0 1 0 2 0 1 0 2 0 2 0 5 0"/>
<path stroke="#EE82EE" d="M693 322l10 0 18 0 1 0 2 0 3 0 1 0 2 0 3 0 1 0 1 0 3 0 5 0 10 0 18 0 17 0 18 0 17 0 1 0 1 0 2 0 1 0 2 0 1 0 1 0 3 0 5 0 10 0 2 0 5 0 8 0 3 0 4 0 1 0 1 0 1 0 1 0 2 0 3 0 1 0 2 0 2 0 5 0 10 0 18 0 18 0 15 0"/>
<path stroke="#B03060" d="M441 103l44 0"/>
<text stroke="none" fill="white" font-size="16" x="495" y="112">
v(door11)+80
</text>
<path stroke="#B03060" d="M70 280l1 0 2 0 3 0 5 0 11 0 1 0 2 0 2 0 5 0 11 0 17 0 1 0 1 0 1 0 2 0 6 0 10 0 1 0 1 0 3 0 5 0 10 0 17 0 18 0 18 0 17 0 1 0 1 0 1 0 3 0 6 0 12 0 18 0 0 -1 0 -2 0 -3 0 -7 0 -13 0 1 0 3 0 5 0 11 0 6 1 0 2 0 3 0 7 0 1 0"/>
<path stroke="#B03060" d="M297 280l1 0 3 0 5 0 10 0 18 0 17 0 18 0 18 0 1 0 1 0 3 0 5 0 10 0 18 0 1 0 2 0 3 0 6 0 2 0 1 0 2 0 2 0 5 0 10 0 18 0 18 0 17 0 2 0 5 0 9 0 1 0 2 0 3 0 7 0 12 0 18 0 2 0 1 0 1 0 1 0 4 0 6 0 1 0 1 0 3 0 5 0 10 0 18 0"/>
<path stroke="#B03060" d="M624 280l17 0 18 0 18 0 1 0 2 0 1 0 2 0 1 0 2 0 2 0 5 0 10 0 18 0 1 0 2 0 3 0 1 0 2 0 3 0 1 0 1 0 3 0 5 0 10 0 18 0 17 0 18 0 17 0 1 0 1 0 2 0 1 0 2 0 1 0 1 0 3 0 5 0 10 0 2 0 5 0 8 0 3 0 4 0 1 0 1 0 1 0 1 0 2 0 3 0"/>
<path stroke="#B03060" d="M881 280l1 0 2 0 2 0 5 0 10 0 18 0 18 0 15 0"/>
<path stroke="#40E0D0" d="M70 103l44 0"/>
<text stroke="none" fill="white" font-size="16" x="124" y="112">
v(door12)+88
</text>
<path stroke="#40E0D0" d="M70 238l1 0 2 0 3 0 5 0 11 0 1 0 2 0 2 0 5 0 11 0 17 0 1 0 1 0 1 0 2 0 6 0 10 0 1 0 1 0 3 0 5 0 10 0 17 0 18 0 18 0 17 0 0 -1 0 -2 0 -3 0 -5 0 -1 0 -1 0 -3 0 -5 0 -5 1 0 1 0 1 0 3 0 6 0 12 0 18 0 0 1 0 1 0 1 0 4 0 6"/>
<path stroke="#40E0D0" d="M283 225l0 13 1 0 2 0 3 0 7 0 1 0 1 0 3 0 5 0 10 0 18 0 17 0 18 0 18 0 1 0 1 0 3 0 5 0 10 0 18 0 1 0 2 0 3 0 6 0 2 0 1 0 2 0 2 0 5 0 10 0 18 0 18 0 17 0 2 0 5 0 9 0 1 0 2 0 3 0 7 0 12 0 18 0 2 0 1 0 1 0 1 0 4 0 6 0 1 0"/>
<path stroke="#40E0D0" d="M587 238l1 0 3 0 5 0 10 0 18 0 17 0 18 0 18 0 1 0 2 0 1 0 2 0 1 0 2 0 2 0 5 0 10 0 18 0 1 0 2 0 3 0 1 0 2 0 3 0 1 0 1 0 3 0 5 0 10 0 18 0 17 0 18 0 17 0 1 0 1 0 2 0 1 0 2 0 1 0 1 0 3 0 5 0 10 0 2 0 5 0 8 0 3 0 4 0 1 0"/>
<path stroke="#40E0D0" d="M873 238l1 0 1 0 1 0 2 0 3 0 1 0 2 0 2 0 5 0 10 0 18 0 18 0 15 0"/>
<path stroke="#A0522D" d="M441 119l44 0"/>
<text stroke="none" fill="white" font-size="16" x="495" y="128">
v(door13)+96
</text>
<path stroke="#A0522D" d="M70 197l1 0 2 0 3 0 5 0 11 0 1 0 2 0 2 0 5 0 11 0 17 0 1 0 1 0 1 0 2 0 6 0 10 0 1 0 1 0 3 0 5 0 10 0 17 0 18 0 18 0 17 0 1 0 1 0 1 0 3 0 6 0 12 0 18 0 1 0 2 0 3 0 7 0 1 0 1 0 3 0 5 0 10 0 18 0 17 0 18 0 18 0 1 0 1 0"/>
<path stroke="#A0522D" d="M389 197l3 0 5 0 10 0 18 0 1 0 2 0 3 0 6 0 2 0 1 0 2 0 2 0 5 0 10 0 18 0 18 0 17 0 2 0 5 0 9 0 1 0 2 0 3 0 7 0 12 0 18 0 2 0 1 0 1 0 1 0 4 0 6 0 1 0 1 0 3 0 5 0 10 0 18 0 17 0 18 0 18 0 1 0 2 0 1 0 2 0 1 0 2 0 2 0 5 0"/>
<path stroke="#A0522D" d="M693 197l10 0 18 0 1 0 2 0 3 0 1 0 2 0 3 0 1 0 1 0 3 0 5 0 10 0 18 0 17 0 18 0 17 0 1 0 1 0 2 0 1 0 2 0 1 0 1 0 3 0 5 0 10 0 2 0 5 0 8 0 3 0 4 0 1 0 1 0 1 0 1 0 2 0 3 0 1 0 2 0 2 0 5 0 10 0 18 0 18 0 15 0"/>
<path stroke="#FF7F50" d="M70 119l44 0"/>
<text stroke="none" fill="white" font-size="16" x="124" y="128">
v(door14)+104
</text>
<path stroke="#FF7F50" d="M70 155l1 0 2 0 3 0 5 0 11 0 1 0 2 0 2 0 5 0 11 0 17 0 1 0 1 0 1 0 2 0 6 0 10 0 1 0 1 0 3 0 5 0 10 0 17 0 18 0 18 0 17 0 1 0 1 0 1 0 3 0 6 0 12 0 18 0 1 0 2 0 3 0 7 0 1 0 1 0 3 0 5 0 10 0 18 0 17 0 18 0 18 0 1 0 1 0"/>
<path stroke="#FF7F50" d="M389 155l3 0 5 0 10 0 18 0 1 0 2 0 3 0 6 0 2 0 1 0 2 0 2 0 5 0 10 0 18 0 18 0 17 0 2 0 5 0 9 0 1 0 2 0 3 0 7 0 12 0 18 0 2 0 1 0 1 0 1 0 4 0 6 0 1 0 1 0 3 0 5 0 10 0 18 0 17 0 18 0 18 0 1 0 2 0 1 0 2 0 1 0 2 0 2 0 5 0"/>
<path stroke="#FF7F50" d="M693 155l10 0 18 0 1 0 2 0 3 0 1 0 2 0 3 0 1 0 1 0 3 0 5 0 10 0 18 0 17 0 18 0 17 0 1 0 1 0 2 0 1 0 2 0 1 0 1 0 3 0 5 0 10 0 2 0 5 0 8 0 3 0 4 0 1 0 1 0 1 0 1 0 2 0 3 0 1 0 2 0 2 0 5 0 10 0 18 0 18 0 15 0"/>
<path stroke="cyan" d="M441 135l44 0"/>
<text stroke="none" fill="white" font-size="16" x="495" y="144">
v(door15)+112
</text>
<path stroke="cyan" d="M70 114l1 0 2 0 3 0 5 0 11 0 1 0 2 0 2 0 5 0 11 0 17 0 1 0 1 0 1 0 2 0 6 0 10 0 1 0 1 0 3 0 5 0 10 0 17 0 18 0 18 0 17 0 1 0 1 0 1 0 3 0 6 0 12 0 18 0 1 0 2 0 3 0 7 0 1 0 1 0 3 0 5 0 10 0 18 0 17 0 18 0 18 0 1 0 1 0 3 0"/>
<path stroke="cyan" d="M392 114l5 0 10 0 18 0 1 0 2 0 3 0 6 0 2 0 1 0 2 0 2 0 5 0 10 0 18 0 18 0 17 0 2 0 5 0 9 0 1 0 2 0 3 0 7 0 12 0 18 0 2 0 1 0 1 0 1 0 4 0 6 0 1 0 1 0 3 0 5 0 10 0 18 0 17 0 18 0 18 0 1 0 2 0 1 0 2 0 1 0 2 0 2 0 5 0 10 0"/>
<path stroke="cyan" d="M703 114l18 0 1 0 2 0 3 0 1 0 2 0 3 0 1 0 1 0 3 0 5 0 10 0 18 0 17 0 18 0 17 0 1 0 1 0 2 0 1 0 2 0 1 0 1 0 3 0 5 0 10 0 2 0 5 0 8 0 3 0 4 0 1 0 1 0 1 0 1 0 2 0 3 0 1 0 2 0 2 0 5 0 10 0 18 0 18 0 15 0"/>
<path stroke="magenta" d="M70 135l44 0"/>
<text stroke="none" fill="white" font-size="16" x="124" y="144">
v(door16)+120
</text>
<path stroke="magenta" d="M70 72l1 0 2 0 3 0 5 0 11 0 1 0 2 0 2 0 5 0 11 0 17 0 1 0 1 0 1 0 2 0 6 0 10 0 1 0 1 0 3 0 5 0 10 0 17 0 18 0 18 0 17 0 1 0 1 0 1 0 3 0 6 0 12 0 18 0 1 0 2 0 3 0 7 0 1 0 1 0 3 0 5 0 10 0 18 0 17 0 18 0 18 0 1 0 1 0 3 0"/>
<path stroke="magenta" d="M392 72l5 0 10 0 18 0 1 0 2 0 3 0 6 0 2 0 1 0 2 0 2 0 5 0 10 0 18 0 18 0 17 0 2 0 5 0 9 0 1 0 2 0 3 0 7 0 12 0 18 0 2 0 1 0 1 0 1 0 4 0 6 0 1 0 1 0 3 0 5 0 10 0 18 0 17 0 18 0 18 0 1 0 2 0 1 0 2 0 1 0 2 0 2 0 5 0 10 0"/>
<path stroke="magenta" d="M703 72l18 0 1 0 2 0 3 0 1 0 2 0 3 0 1 0 1 0 3 0 5 0 10 0 18 0 17 0 18 0 17 0 1 0 1 0 2 0 1 0 2 0 1 0 1 0 3 0 5 0 10 0 2 0 5 0 8 0 3 0 4 0 1 0 1 0 1 0 1 0 2 0 3 0 1 0 2 0 2 0 5 0 10 0 18 0 18 0 15 0"/>
</svg>
