<?xml version="1.0" standalone="yes"?>
<!DOCTYPE svg PUBLIC "-//W3C//DTD SVG 1.1//EN"
 "http://www.w3.org/Graphics/SVG/1.1/DTD/svg11.dtd">
<svg xmlns="http://www.w3.org/2000/svg" version="1.1"
  width="100%" height="100%" viewBox="0 0 1024 768"
  style="fill: none; font-family: Helvetica;
 font: Helvetica;
">

<!-- Creator: NGspice -->

<rect x="0" y="0" width="1024" height="768" fill="black" stroke="none"/>
"/>
<text stroke="none" fill="white" font-size="16" x="358" y="752">
time
</text>
<text stroke="none" fill="white" font-size="16" x="10" y="16">
tran1: * e:\aishwarya\mixed_signal_soc_design_marathon\security_system\security_system.cir
</text>
<path stroke="white" d="M50 696l0 -624"/>
<text stroke="none" fill="white" font-size="16" x="35" y="728">
0.0
</text>
<path stroke="white" stroke-dasharray="1,2" d="M204 696l0 -624"/>
<text stroke="none" fill="white" font-size="16" x="189" y="728">
0.5
</text>
<path stroke="white" stroke-dasharray="1,2" d="M358 696l0 -624"/>
<text stroke="none" fill="white" font-size="16" x="343" y="728">
1.0
</text>
<path stroke="white" stroke-dasharray="1,2" d="M512 696l0 -624"/>
<text stroke="none" fill="white" font-size="16" x="497" y="728">
1.5
</text>
<path stroke="white" stroke-dasharray="1,2" d="M666 696l0 -624"/>
<text stroke="none" fill="white" font-size="16" x="651" y="728">
2.0
</text>
<path stroke="white" stroke-dasharray="1,2" d="M820 696l0 -624"/>
<text stroke="none" fill="white" font-size="16" x="805" y="728">
2.5
</text>
<path stroke="white" stroke-dasharray="1,2" d="M974 696l0 -624"/>
<text stroke="none" fill="white" font-size="16" x="959" y="728">
3.0
</text>
<text stroke="none" fill="white" font-size="16" x="614" y="752">
s
</text>
<path stroke="white" stroke-dasharray="1,2" d="M50 696l924 0"/>
<text stroke="none" fill="white" font-size="16" x="8" y="704">
-2.0
</text>
<path stroke="white" stroke-dasharray="1,2" d="M50 618l924 0"/>
<text stroke="none" fill="white" font-size="16" x="8" y="626">
-1.5
</text>
<path stroke="white" stroke-dasharray="1,2" d="M50 540l924 0"/>
<text stroke="none" fill="white" font-size="16" x="8" y="548">
-1.0
</text>
<path stroke="white" stroke-dasharray="1,2" d="M50 462l924 0"/>
<text stroke="none" fill="white" font-size="16" x="8" y="470">
-0.5
</text>
<path stroke="white" d="M50 384l924 0"/>
<text stroke="none" fill="white" font-size="16" x="18" y="392">
0.0
</text>
<path stroke="white" stroke-dasharray="1,2" d="M50 306l924 0"/>
<text stroke="none" fill="white" font-size="16" x="18" y="314">
0.5
</text>
<path stroke="white" stroke-dasharray="1,2" d="M50 228l924 0"/>
<text stroke="none" fill="white" font-size="16" x="18" y="236">
1.0
</text>
<path stroke="white" stroke-dasharray="1,2" d="M50 150l924 0"/>
<text stroke="none" fill="white" font-size="16" x="18" y="158">
1.5
</text>
<path stroke="white" stroke-dasharray="1,2" d="M50 72l924 0"/>
<text stroke="none" fill="white" font-size="16" x="18" y="80">
2.0
</text>
<text stroke="none" fill="white" font-size="16" x="10" y="32">
V
</text>
<path stroke="red" d="M462 23l46 0"/>
<text stroke="none" fill="white" font-size="16" x="518" y="32">
v(in1)
</text>
<path stroke="red" d="M50 228l1 0 2 0 3 0 6 0 11 0 1 0 1 0 1 0 3 0 5 0 11 0 18 0 1 0 1 0 1 0 3 0 5 0 10 0 1 0 1 0 1 0 3 0 5 0 11 0 18 0 19 0 18 0 19 0 1 0 2 0 3 0 6 0 12 0 19 0 1 0 1 0 1 0 4 0 7 0 1 0 1 0 3 0 5 0 11 0 18 0 19 0 18 0 19 0 1 0"/>
<path stroke="red" d="M383 228l1 0 3 0 5 0 11 0 19 0 1 0 2 0 3 0 7 0 2 0 1 0 1 0 3 0 5 0 11 0 18 0 19 0 18 0 3 0 4 0 9 0 1 0 1 0 2 0 3 0 7 0 13 0 19 0 2 0 1 0 1 0 2 0 3 0 7 0 1 0 1 0 3 0 5 0 11 0 18 0 19 0 18 0 19 0 1 0 2 0 1 0 1 0 1 0 1 0 1 0"/>
<path stroke="red" d="M694 228l1 0 3 0 5 0 10 0 19 0 1 0 1 0 1 0 3 0 1 0 2 0 3 0 1 0 1 0 1 0 3 0 5 0 10 0 19 0 18 0 19 0 18 0 1 0 1 0 2 0 1 0 2 0 1 0 2 0 2 0 6 0 10 0 2 0 5 0 9 0 3 0 4 0 1 0 1 0 2 0 1 0 1 0 4 0 1 0 1 0 3 0 5 0 11 0 18 0 19 0"/>
<path stroke="red" d="M958 228l16 0"/>
<path stroke="blue" d="M50 23l46 0"/>
<text stroke="none" fill="white" font-size="16" x="106" y="32">
v(in2)
</text>
<path stroke="blue" d="M50 306l1 0 2 0 3 0 6 0 11 0 1 0 1 0 1 0 3 0 5 0 11 0 18 0 1 0 1 0 1 0 3 0 5 0 10 0 1 0 1 0 1 0 3 0 5 0 11 0 18 0 19 0 18 0 19 0 1 0 2 0 3 0 6 0 12 0 19 0 1 0 1 0 1 0 4 0 7 0 1 0 1 0 3 0 5 0 11 0 18 0 19 0 18 0 19 0 1 0"/>
<path stroke="blue" d="M383 306l1 0 3 0 5 0 11 0 19 0 1 0 2 0 3 0 7 0 2 0 1 0 1 0 3 0 5 0 11 0 18 0 19 0 18 0 3 0 4 0 9 0 1 0 1 0 2 0 3 0 7 0 13 0 19 0 2 0 1 0 1 0 2 0 3 0 7 0 1 0 1 0 3 0 5 0 11 0 18 0 19 0 18 0 19 0 1 0 2 0 1 0 1 0 1 0 1 0 1 0"/>
<path stroke="blue" d="M694 306l1 0 3 0 5 0 10 0 19 0 1 0 1 0 1 0 3 0 1 0 2 0 3 0 1 0 1 0 1 0 3 0 5 0 10 0 19 0 18 0 19 0 18 0 1 0 1 0 2 0 1 0 2 0 1 0 2 0 2 0 6 0 10 0 2 0 5 0 9 0 3 0 4 0 1 0 1 0 2 0 1 0 1 0 4 0 1 0 1 0 3 0 5 0 11 0 18 0 19 0"/>
<path stroke="blue" d="M958 306l16 0"/>
<path stroke="#FFA500" d="M462 39l46 0"/>
<text stroke="none" fill="white" font-size="16" x="518" y="48">
v(sine)
</text>
<path stroke="#FFA500" d="M50 384l0 -1 0 -1 0 -2 1 -4 0 -9 2 -17 3 -33 6 -62 11 -98 0 -1 0 -1 0 -1 1 -2 1 -4 1 -8 3 -14 5 -18 11 4 18 123 0 1 0 1 1 1 0 4 1 6 1 14 3 28 5 58 10 120 1 1 0 1 0 2 0 3 1 8 1 14 3 27 5 49 11 69 18 6 19 -138 18 -206"/>
<path stroke="#FFA500" d="M211 304l19 -163 0 -1 0 -1 0 -2 1 -4 2 -8 3 -11 6 -11 12 33 19 157 0 1 0 1 0 1 0 2 1 5 1 9 1 19 4 38 7 78 0 1 0 2 0 4 1 7 1 15 3 28 5 51 11 78 18 22 19 -125 18 -204 19 -172 0 -1 0 -1 0 -1 0 -2 1 -4 1 -8 3 -13 5 -17 11 7"/>
<path stroke="#FFA500" d="M403 114l19 125 0 1 0 1 0 2 1 5 0 8 2 17 3 36 7 75 2 19 0 1 0 2 0 4 1 8 1 15 3 29 5 56 11 91 18 54 19 -97 18 -196 3 -26 4 -52 9 -91 1 -1 0 -1 0 -2 0 -3 1 -7 2 -14 3 -23 7 -34 13 -4 19 120 2 23 0 1 0 1 1 2 0 4 1 9 2 18"/>
<path stroke="#FFA500" d="M581 290l3 36 7 75 0 1 0 1 0 2 0 4 1 7 1 15 3 30 5 56 11 91 18 55 19 -96 18 -196 19 -188 0 -1 0 -1 0 -2 0 -3 1 -6 2 -12 0 -1 0 -2 1 -2 1 -6 1 -9 0 -1 1 -1 0 -2 1 -3 1 -6 3 -10 5 -11 10 17 19 140 0 1 0 1 0 2 1 4 1 9 1 18"/>
<path stroke="#FFA500" d="M735 296l3 36 1 10 2 19 3 37 0 1 0 1 1 2 0 4 1 7 1 16 3 29 5 56 10 93 19 56 18 -94 19 -195 18 -189 0 -1 1 -1 0 -2 0 -3 1 -6 2 -12 0 -1 0 -1 0 -1 0 -3 1 -5 2 -10 0 -1 0 -1 1 -1 0 -4 2 -6 2 -11 6 -11 10 16 2 11 5 27 9 77"/>
<path stroke="#FFA500" d="M883 235l3 23 4 49 0 1 0 2 1 2 0 4 1 10 2 18 0 5 1 9 1 19 4 38 0 1 0 1 0 2 0 4 1 7 1 15 3 29 5 55 11 87 18 45 19 -105 16 -172"/>
</svg>
